{
	"asset":{
		"generator":"Khronos glTF Blender I/O v3.6.28",
		"version":"2.0"
	},
	"scene":0,
	"scenes":[
		{
			"name":"Scene",
			"nodes":[
				0,
				1,
				2,
				3
			]
		}
	],
	"nodes":[
		{
			"mesh":0,
			"name":"02_00Linhas_0"
		},
		{
			"mesh":1,
			"name":"Face.01_heads Outline_0"
		},
		{
			"mesh":2,
			"name":"Face.01_heads_0"
		},
		{
			"mesh":3,
			"name":"Face.02_heads Outline_0"
		}
	],
	"materials":[
		{
			"doubleSided":true,
			"name":"PaletteMaterial001",
			"pbrMetallicRoughness":{
				"baseColorTexture":{
					"index":0
				},
				"metallicRoughnessTexture":{
					"index":1
				}
			}
		},
		{
			"name":"PaletteMaterial002",
			"pbrMetallicRoughness":{
				"baseColorTexture":{
					"index":2
				},
				"metallicRoughnessTexture":{
					"index":3
				}
			}
		},
		{
			"doubleSided":true,
			"name":"PaletteMaterial001.001",
			"pbrMetallicRoughness":{
				"baseColorTexture":{
					"index":4
				},
				"metallicRoughnessTexture":{
					"index":5
				}
			}
		},
		{
			"name":"PaletteMaterial002.001",
			"pbrMetallicRoughness":{
				"baseColorTexture":{
					"index":6
				},
				"metallicRoughnessTexture":{
					"index":7
				}
			}
		}
	],
	"meshes":[
		{
			"name":"02_00Linhas_0",
			"primitives":[
				{
					"attributes":{
						"POSITION":0,
						"NORMAL":1,
						"TEXCOORD_0":2
					},
					"indices":3,
					"material":0
				}
			]
		},
		{
			"name":"Face.01_heads Outline_0",
			"primitives":[
				{
					"attributes":{
						"COLOR_0":4,
						"POSITION":5,
						"NORMAL":6,
						"TEXCOORD_0":7
					},
					"indices":8,
					"material":1
				}
			]
		},
		{
			"name":"Face.01_heads_0",
			"primitives":[
				{
					"attributes":{
						"COLOR_0":9,
						"POSITION":10,
						"NORMAL":11,
						"TEXCOORD_0":12
					},
					"indices":13,
					"material":2
				}
			]
		},
		{
			"name":"Face.02_heads Outline_0",
			"primitives":[
				{
					"attributes":{
						"POSITION":14,
						"NORMAL":15,
						"TEXCOORD_0":16
					},
					"indices":17,
					"material":3
				}
			]
		}
	],
	"textures":[
		{
			"sampler":0,
			"source":0
		},
		{
			"sampler":0,
			"source":1
		},
		{
			"sampler":0,
			"source":0
		},
		{
			"sampler":0,
			"source":1
		},
		{
			"sampler":0,
			"source":0
		},
		{
			"sampler":0,
			"source":1
		},
		{
			"sampler":0,
			"source":0
		},
		{
			"sampler":0,
			"source":1
		}
	],
	"images":[
		{
			"mimeType":"image/jpeg",
			"name":"PaletteBaseColor",
			"uri":"PaletteBaseColor.jpg"
		},
		{
			"mimeType":"image/jpeg",
			"name":"PaletteMetallicRoughness",
			"uri":"PaletteMetallicRoughness.jpg"
		}
	],
	"accessors":[
		{
			"bufferView":0,
			"componentType":5126,
			"count":266356,
			"max":[
				1.232694149017334,
				0.4205532371997833,
				0.36713260412216187
			],
			"min":[
				-1.139479398727417,
				-0.5539159774780273,
				-0.4005695879459381
			],
			"type":"VEC3"
		},
		{
			"bufferView":1,
			"componentType":5126,
			"count":266356,
			"type":"VEC3"
		},
		{
			"bufferView":2,
			"componentType":5126,
			"count":266356,
			"type":"VEC2"
		},
		{
			"bufferView":3,
			"componentType":5125,
			"count":650832,
			"type":"SCALAR"
		},
		{
			"bufferView":4,
			"componentType":5123,
			"count":7518,
			"normalized":true,
			"type":"VEC4"
		},
		{
			"bufferView":5,
			"componentType":5126,
			"count":7518,
			"max":[
				1.1304423809051514,
				0.3021983802318573,
				0.36633002758026123
			],
			"min":[
				-1.1080422401428223,
				-0.5296329855918884,
				-0.3027696907520294
			],
			"type":"VEC3"
		},
		{
			"bufferView":6,
			"componentType":5126,
			"count":7518,
			"type":"VEC3"
		},
		{
			"bufferView":7,
			"componentType":5126,
			"count":7518,
			"type":"VEC2"
		},
		{
			"bufferView":8,
			"componentType":5123,
			"count":44532,
			"type":"SCALAR"
		},
		{
			"bufferView":9,
			"componentType":5123,
			"count":7531,
			"normalized":true,
			"type":"VEC4"
		},
		{
			"bufferView":10,
			"componentType":5126,
			"count":7531,
			"max":[
				1.127457618713379,
				0.296272337436676,
				0.3604280948638916
			],
			"min":[
				-1.102046251296997,
				-0.5236483812332153,
				-0.2967333197593689
			],
			"type":"VEC3"
		},
		{
			"bufferView":11,
			"componentType":5126,
			"count":7531,
			"type":"VEC3"
		},
		{
			"bufferView":12,
			"componentType":5126,
			"count":7531,
			"type":"VEC2"
		},
		{
			"bufferView":13,
			"componentType":5123,
			"count":44532,
			"type":"SCALAR"
		},
		{
			"bufferView":14,
			"componentType":5126,
			"count":4813,
			"max":[
				0.5636148452758789,
				0.30038201808929443,
				0.3670223653316498
			],
			"min":[
				-0.5526086688041687,
				-0.5093790888786316,
				-0.29148346185684204
			],
			"type":"VEC3"
		},
		{
			"bufferView":15,
			"componentType":5126,
			"count":4813,
			"type":"VEC3"
		},
		{
			"bufferView":16,
			"componentType":5126,
			"count":4813,
			"type":"VEC2"
		},
		{
			"bufferView":17,
			"componentType":5123,
			"count":28764,
			"type":"SCALAR"
		}
	],
	"bufferViews":[
		{
			"buffer":0,
			"byteLength":3196272,
			"byteOffset":0,
			"target":34962
		},
		{
			"buffer":0,
			"byteLength":3196272,
			"byteOffset":3196272,
			"target":34962
		},
		{
			"buffer":0,
			"byteLength":2130848,
			"byteOffset":6392544,
			"target":34962
		},
		{
			"buffer":0,
			"byteLength":2603328,
			"byteOffset":8523392,
			"target":34963
		},
		{
			"buffer":0,
			"byteLength":60144,
			"byteOffset":11126720,
			"target":34962
		},
		{
			"buffer":0,
			"byteLength":90216,
			"byteOffset":11186864,
			"target":34962
		},
		{
			"buffer":0,
			"byteLength":90216,
			"byteOffset":11277080,
			"target":34962
		},
		{
			"buffer":0,
			"byteLength":60144,
			"byteOffset":11367296,
			"target":34962
		},
		{
			"buffer":0,
			"byteLength":89064,
			"byteOffset":11427440,
			"target":34963
		},
		{
			"buffer":0,
			"byteLength":60248,
			"byteOffset":11516504,
			"target":34962
		},
		{
			"buffer":0,
			"byteLength":90372,
			"byteOffset":11576752,
			"target":34962
		},
		{
			"buffer":0,
			"byteLength":90372,
			"byteOffset":11667124,
			"target":34962
		},
		{
			"buffer":0,
			"byteLength":60248,
			"byteOffset":11757496,
			"target":34962
		},
		{
			"buffer":0,
			"byteLength":89064,
			"byteOffset":11817744,
			"target":34963
		},
		{
			"buffer":0,
			"byteLength":57756,
			"byteOffset":11906808,
			"target":34962
		},
		{
			"buffer":0,
			"byteLength":57756,
			"byteOffset":11964564,
			"target":34962
		},
		{
			"buffer":0,
			"byteLength":38504,
			"byteOffset":12022320,
			"target":34962
		},
		{
			"buffer":0,
			"byteLength":57528,
			"byteOffset":12060824,
			"target":34963
		}
	],
	"samplers":[
		{
			"magFilter":9728,
			"minFilter":9984
		}
	],
	"buffers":[
		{
			"byteLength":12118352,
			"uri":"test_head_compressed.bin"
		}
	]
}
