{
  "accessors": [
    {
      "bufferView": 1,
      "componentType": 5126,
      "count": 730,
      "max": [
        22.736005783081055,
        -19.776025772094727,
        80.29288482666016
      ],
      "min": [
        2.303262948989868,
        -212.4086456298828,
        -4.252105236053467
      ],
      "type": "VEC3"
    },
    {
      "bufferView": 1,
      "byteOffset": 8760,
      "componentType": 5126,
      "count": 730,
      "max": [
        0.9960517287254333,
        0.9147481322288513,
        0.9188761115074158
      ],
      "min": [
        -0.9960517883300781,
        -0.9147728085517883,
        -0.9188764095306396
      ],
      "type": "VEC3"
    },
    {
      "bufferView": 0,
      "componentType": 5125,
      "count": 3168,
      "type": "SCALAR"
    },
    {
      "bufferView": 1,
      "byteOffset": 17520,
      "componentType": 5126,
      "count": 2562,
      "max": [
        35.000003814697266,
        -126.09233093261719,
        166.2499542236328
      ],
      "min": [
        5.000000953674316,
        -156.0923309326172,
        136.2499542236328
      ],
      "type": "VEC3"
    },
    {
      "bufferView": 1,
      "byteOffset": 48264,
      "componentType": 5126,
      "count": 2562,
      "max": [
        0.9999998211860657,
        1.0,
        1.0
      ],
      "min": [
        -0.9999998807907104,
        -1.0,
        -1.0
      ],
      "type": "VEC3"
    },
    {
      "bufferView": 0,
      "byteOffset": 12672,
      "componentType": 5125,
      "count": 15360,
      "type": "SCALAR"
    },
    {
      "bufferView": 1,
      "byteOffset": 79008,
      "componentType": 5126,
      "count": 730,
      "max": [
        99.07003784179688,
        -20.019161224365234,
        244.99249267578125
      ],
      "min": [
        56.995147705078125,
        -195.2455596923828,
        35.17298889160156
      ],
      "type": "VEC3"
    },
    {
      "bufferView": 1,
      "byteOffset": 87768,
      "componentType": 5126,
      "count": 730,
      "max": [
        0.9892544746398926,
        0.7740166783332825,
        0.760218620300293
      ],
      "min": [
        -0.9892551302909851,
        -0.7740169167518616,
        -0.7602607011795044
      ],
      "type": "VEC3"
    },
    {
      "bufferView": 0,
      "byteOffset": 74112,
      "componentType": 5125,
      "count": 3168,
      "type": "SCALAR"
    },
    {
      "bufferView": 1,
      "byteOffset": 96528,
      "componentType": 5126,
      "count": 730,
      "max": [
        16.874671936035156,
        -45.09446716308594,
        111.77947998046875
      ],
      "min": [
        -27.258079528808594,
        -135.18382263183594,
        5.281785011291504
      ],
      "type": "VEC3"
    },
    {
      "bufferView": 1,
      "byteOffset": 105288,
      "componentType": 5126,
      "count": 730,
      "max": [
        0.9558720588684082,
        0.7880181074142456,
        0.7324760556221008
      ],
      "min": [
        -0.9558708667755127,
        -0.7880180478096008,
        -0.7313203811645508
      ],
      "type": "VEC3"
    },
    {
      "bufferView": 0,
      "byteOffset": 86784,
      "componentType": 5125,
      "count": 3168,
      "type": "SCALAR"
    },
    {
      "bufferView": 1,
      "byteOffset": 114048,
      "componentType": 5126,
      "count": 2562,
      "max": [
        -37.11492919921875,
        -33.585968017578125,
        312.7939453125
      ],
      "min": [
        -77.11493682861328,
        -73.58596801757813,
        272.7939453125
      ],
      "type": "VEC3"
    },
    {
      "bufferView": 1,
      "byteOffset": 144792,
      "componentType": 5126,
      "count": 2562,
      "max": [
        0.9999999403953552,
        1.0,
        1.0
      ],
      "min": [
        -0.9999998807907104,
        -1.0,
        -1.0
      ],
      "type": "VEC3"
    },
    {
      "bufferView": 0,
      "byteOffset": 99456,
      "componentType": 5125,
      "count": 15360,
      "type": "SCALAR"
    },
    {
      "bufferView": 1,
      "byteOffset": 175536,
      "componentType": 5126,
      "count": 730,
      "max": [
        -16.91815948486328,
        -47.313865661621094,
        292.42547607421875
      ],
      "min": [
        -59.86664581298828,
        -151.4289093017578,
        98.17457580566406
      ],
      "type": "VEC3"
    },
    {
      "bufferView": 1,
      "byteOffset": 184296,
      "componentType": 5126,
      "count": 730,
      "max": [
        0.9828876852989197,
        0.88792884349823,
        0.8703835010528564
      ],
      "min": [
        -0.9828869104385376,
        -0.8879292607307434,
        -0.8687251806259155
      ],
      "type": "VEC3"
    },
    {
      "bufferView": 0,
      "byteOffset": 160896,
      "componentType": 5125,
      "count": 3168,
      "type": "SCALAR"
    },
    {
      "bufferView": 1,
      "byteOffset": 193056,
      "componentType": 5126,
      "count": 2562,
      "max": [
        25.0,
        -192.4080810546875,
        106.21499633789063
      ],
      "min": [
        -25.000001907348633,
        -242.4080810546875,
        56.21500015258789
      ],
      "type": "VEC3"
    },
    {
      "bufferView": 1,
      "byteOffset": 223800,
      "componentType": 5126,
      "count": 2562,
      "max": [
        0.9999999403953552,
        1.0,
        1.0
      ],
      "min": [
        -0.9999999403953552,
        -1.0,
        -1.0
      ],
      "type": "VEC3"
    },
    {
      "bufferView": 0,
      "byteOffset": 173568,
      "componentType": 5125,
      "count": 15360,
      "type": "SCALAR"
    },
    {
      "bufferView": 1,
      "byteOffset": 254544,
      "componentType": 5126,
      "count": 2562,
      "max": [
        114.06387329101563,
        -166.03465270996094,
        43.65171813964844
      ],
      "min": [
        74.0638656616211,
        -206.03465270996094,
        3.6517179012298584
      ],
      "type": "VEC3"
    },
    {
      "bufferView": 1,
      "byteOffset": 285288,
      "componentType": 5126,
      "count": 2562,
      "max": [
        0.9999998807907104,
        1.0,
        1.0
      ],
      "min": [
        -0.9999998807907104,
        -1.0,
        -1.0
      ],
      "type": "VEC3"
    },
    {
      "bufferView": 0,
      "byteOffset": 235008,
      "componentType": 5125,
      "count": 15360,
      "type": "SCALAR"
    },
    {
      "bufferView": 1,
      "byteOffset": 316032,
      "componentType": 5126,
      "count": 730,
      "max": [
        91.86821746826172,
        -179.00210571289063,
        81.08200073242188
      ],
      "min": [
        6.324492931365967,
        -210.40554809570313,
        20.311065673828125
      ],
      "type": "VEC3"
    },
    {
      "bufferView": 1,
      "byteOffset": 324792,
      "componentType": 5126,
      "count": 730,
      "max": [
        0.7875600457191467,
        0.9612839818000793,
        0.83384770154953
      ],
      "min": [
        -0.7875214219093323,
        -0.9612854719161987,
        -0.8338466286659241
      ],
      "type": "VEC3"
    },
    {
      "bufferView": 0,
      "byteOffset": 296448,
      "componentType": 5125,
      "count": 3168,
      "type": "SCALAR"
    },
    {
      "bufferView": 1,
      "byteOffset": 333552,
      "componentType": 5126,
      "count": 2562,
      "max": [
        45.000003814697266,
        9.999999974752427e-07,
        24.999996185302734
      ],
      "min": [
        -5.0,
        -49.99999237060547,
        -24.999998092651367
      ],
      "type": "VEC3"
    },
    {
      "bufferView": 1,
      "byteOffset": 364296,
      "componentType": 5126,
      "count": 2562,
      "max": [
        0.9999998807907104,
        1.0,
        1.0
      ],
      "min": [
        -0.9999998807907104,
        -1.0,
        -1.0
      ],
      "type": "VEC3"
    },
    {
      "bufferView": 0,
      "byteOffset": 309120,
      "componentType": 5125,
      "count": 15360,
      "type": "SCALAR"
    },
    {
      "bufferView": 1,
      "byteOffset": 395040,
      "componentType": 5126,
      "count": 2562,
      "max": [
        80.00000762939453,
        -0.0,
        272.7939758300781
      ],
      "min": [
        40.000003814697266,
        -40.0,
        232.79397583007813
      ],
      "type": "VEC3"
    },
    {
      "bufferView": 1,
      "byteOffset": 425784,
      "componentType": 5126,
      "count": 2562,
      "max": [
        0.9999998807907104,
        0.9999999403953552,
        0.9999999403953552
      ],
      "min": [
        -0.9999999403953552,
        -1.0,
        -0.9999999403953552
      ],
      "type": "VEC3"
    },
    {
      "bufferView": 0,
      "byteOffset": 370560,
      "componentType": 5125,
      "count": 15360,
      "type": "SCALAR"
    },
    {
      "bufferView": 1,
      "byteOffset": 456528,
      "componentType": 5126,
      "count": 730,
      "max": [
        54.871726989746094,
        -33.585968017578125,
        252.7939910888672
      ],
      "min": [
        1.1000000085914508e-05,
        -212.26486206054688,
        79.70594787597656
      ],
      "type": "VEC3"
    },
    {
      "bufferView": 1,
      "byteOffset": 465288,
      "componentType": 5126,
      "count": 730,
      "max": [
        0.9777639508247375,
        0.7117217779159546,
        0.7330628037452698
      ],
      "min": [
        -0.9777643084526062,
        -0.711721658706665,
        -0.7330626249313354
      ],
      "type": "VEC3"
    },
    {
      "bufferView": 0,
      "byteOffset": 432000,
      "componentType": 5125,
      "count": 3168,
      "type": "SCALAR"
    },
    {
      "bufferView": 1,
      "byteOffset": 474048,
      "componentType": 5126,
      "count": 2562,
      "max": [
        -3.0309600830078125,
        -116.09232330322266,
        126.21499633789063
      ],
      "min": [
        -43.03096008300781,
        -156.09231567382813,
        86.21499633789063
      ],
      "type": "VEC3"
    },
    {
      "bufferView": 1,
      "byteOffset": 504792,
      "componentType": 5126,
      "count": 2562,
      "max": [
        0.9999998211860657,
        1.0,
        1.0
      ],
      "min": [
        -0.9999998807907104,
        -1.0,
        -1.0
      ],
      "type": "VEC3"
    },
    {
      "bufferView": 0,
      "byteOffset": 444672,
      "componentType": 5125,
      "count": 15360,
      "type": "SCALAR"
    },
    {
      "bufferView": 1,
      "byteOffset": 535536,
      "componentType": 5126,
      "count": 730,
      "max": [
        95.84038543701172,
        -137.75050354003906,
        113.25340270996094
      ],
      "min": [
        -25.72821807861328,
        -191.5464630126953,
        28.64219093322754
      ],
      "type": "VEC3"
    },
    {
      "bufferView": 1,
      "byteOffset": 544296,
      "componentType": 5126,
      "count": 730,
      "max": [
        0.7759189605712891,
        0.9422720670700073,
        0.84492027759552
      ],
      "min": [
        -0.7759568095207214,
        -0.9422692060470581,
        -0.844919741153717
      ],
      "type": "VEC3"
    },
    {
      "bufferView": 0,
      "byteOffset": 506112,
      "componentType": 5125,
      "count": 3168,
      "type": "SCALAR"
    },
    {
      "bufferView": 1,
      "byteOffset": 553056,
      "componentType": 5126,
      "count": 730,
      "max": [
        91.86820983886719,
        -20.019161224365234,
        22.812406539916992
      ],
      "min": [
        22.122087478637695,
        -190.0301055908203,
        -8.37130069732666
      ],
      "type": "VEC3"
    },
    {
      "bufferView": 1,
      "byteOffset": 561816,
      "componentType": 5126,
      "count": 730,
      "max": [
        0.9299324154853821,
        0.9164155721664429,
        0.9873749017715454
      ],
      "min": [
        -0.9299327731132507,
        -0.9164819717407227,
        -0.9873747825622559
      ],
      "type": "VEC3"
    },
    {
      "bufferView": 0,
      "byteOffset": 518784,
      "componentType": 5125,
      "count": 3168,
      "type": "SCALAR"
    }
  ],
  "asset": {
    "extras": {
      "author": "Marsoft (https://sketchfab.com/bear59814)",
      "license": "CC-BY-4.0 (http://creativecommons.org/licenses/by/4.0/)",
      "source": "https://sketchfab.com/3d-models/the-colour-and-the-shape-41a92e71470c48ebac35b767ca1a3afa",
      "title": "The colour and the Shape"
    },
    "generator": "Sketchfab-12.66.0",
    "version": "2.0"
  },
  "bufferViews": [
    {
      "buffer": 0,
      "byteLength": 531456,
      "name": "floatBufferViews",
      "target": 34963
    },
    {
      "buffer": 0,
      "byteLength": 570576,
      "byteOffset": 531456,
      "byteStride": 12,
      "name": "floatBufferViews",
      "target": 34962
    }
  ],
  "buffers": [
    {
      "byteLength": 1102032,
      "uri": "scene.bin"
    }
  ],
  "materials": [
    {
      "doubleSided": true,
      "name": "material",
      "pbrMetallicRoughness": {
        "metallicFactor": 0.0,
        "roughnessFactor": 0.6
      }
    },
    {
      "doubleSided": true,
      "name": "10_0",
      "pbrMetallicRoughness": {
        "metallicFactor": 0.0,
        "roughnessFactor": 0.6
      }
    },
    {
      "doubleSided": true,
      "name": "11_0",
      "pbrMetallicRoughness": {
        "metallicFactor": 0.0,
        "roughnessFactor": 0.6
      }
    },
    {
      "doubleSided": true,
      "name": "12_0",
      "pbrMetallicRoughness": {
        "metallicFactor": 0.0,
        "roughnessFactor": 0.6
      }
    },
    {
      "doubleSided": true,
      "name": "13_0",
      "pbrMetallicRoughness": {
        "metallicFactor": 0.0,
        "roughnessFactor": 0.6
      }
    },
    {
      "doubleSided": true,
      "name": "14_0",
      "pbrMetallicRoughness": {
        "metallicFactor": 0.0,
        "roughnessFactor": 0.6
      }
    },
    {
      "doubleSided": true,
      "name": "material_6",
      "pbrMetallicRoughness": {
        "metallicFactor": 0.0,
        "roughnessFactor": 0.44
      }
    },
    {
      "doubleSided": true,
      "name": "material_7",
      "pbrMetallicRoughness": {
        "metallicFactor": 0.0,
        "roughnessFactor": 0.6
      }
    },
    {
      "doubleSided": true,
      "name": "material_8",
      "pbrMetallicRoughness": {
        "metallicFactor": 0.0,
        "roughnessFactor": 0.6
      }
    },
    {
      "doubleSided": true,
      "name": "material_9",
      "pbrMetallicRoughness": {
        "metallicFactor": 0.0,
        "roughnessFactor": 0.6
      }
    },
    {
      "doubleSided": true,
      "name": "material_10",
      "pbrMetallicRoughness": {
        "metallicFactor": 0.0,
        "roughnessFactor": 0.6
      }
    },
    {
      "doubleSided": true,
      "name": "material_11",
      "pbrMetallicRoughness": {
        "metallicFactor": 0.0,
        "roughnessFactor": 0.6
      }
    },
    {
      "doubleSided": true,
      "name": "material_12",
      "pbrMetallicRoughness": {
        "metallicFactor": 0.0,
        "roughnessFactor": 0.6
      }
    },
    {
      "doubleSided": true,
      "name": "material_13",
      "pbrMetallicRoughness": {
        "metallicFactor": 0.0,
        "roughnessFactor": 0.6
      }
    },
    {
      "doubleSided": true,
      "name": "material_14",
      "pbrMetallicRoughness": {
        "metallicFactor": 0.0,
        "roughnessFactor": 0.6
      }
    }
  ],
  "meshes": [
    {
      "name": "Object_0",
      "primitives": [
        {
          "attributes": {
            "NORMAL": 1,
            "POSITION": 0
          },
          "indices": 2,
          "material": 0,
          "mode": 4
        }
      ]
    },
    {
      "name": "Object_1",
      "primitives": [
        {
          "attributes": {
            "NORMAL": 4,
            "POSITION": 3
          },
          "indices": 5,
          "material": 1,
          "mode": 4
        }
      ]
    },
    {
      "name": "Object_2",
      "primitives": [
        {
          "attributes": {
            "NORMAL": 7,
            "POSITION": 6
          },
          "indices": 8,
          "material": 2,
          "mode": 4
        }
      ]
    },
    {
      "name": "Object_3",
      "primitives": [
        {
          "attributes": {
            "NORMAL": 10,
            "POSITION": 9
          },
          "indices": 11,
          "material": 3,
          "mode": 4
        }
      ]
    },
    {
      "name": "Object_4",
      "primitives": [
        {
          "attributes": {
            "NORMAL": 13,
            "POSITION": 12
          },
          "indices": 14,
          "material": 4,
          "mode": 4
        }
      ]
    },
    {
      "name": "Object_5",
      "primitives": [
        {
          "attributes": {
            "NORMAL": 16,
            "POSITION": 15
          },
          "indices": 17,
          "material": 5,
          "mode": 4
        }
      ]
    },
    {
      "name": "Object_6",
      "primitives": [
        {
          "attributes": {
            "NORMAL": 19,
            "POSITION": 18
          },
          "indices": 20,
          "material": 6,
          "mode": 4
        }
      ]
    },
    {
      "name": "Object_7",
      "primitives": [
        {
          "attributes": {
            "NORMAL": 22,
            "POSITION": 21
          },
          "indices": 23,
          "material": 7,
          "mode": 4
        }
      ]
    },
    {
      "name": "Object_8",
      "primitives": [
        {
          "attributes": {
            "NORMAL": 25,
            "POSITION": 24
          },
          "indices": 26,
          "material": 8,
          "mode": 4
        }
      ]
    },
    {
      "name": "Object_9",
      "primitives": [
        {
          "attributes": {
            "NORMAL": 28,
            "POSITION": 27
          },
          "indices": 29,
          "material": 9,
          "mode": 4
        }
      ]
    },
    {
      "name": "Object_10",
      "primitives": [
        {
          "attributes": {
            "NORMAL": 31,
            "POSITION": 30
          },
          "indices": 32,
          "material": 10,
          "mode": 4
        }
      ]
    },
    {
      "name": "Object_11",
      "primitives": [
        {
          "attributes": {
            "NORMAL": 34,
            "POSITION": 33
          },
          "indices": 35,
          "material": 11,
          "mode": 4
        }
      ]
    },
    {
      "name": "Object_12",
      "primitives": [
        {
          "attributes": {
            "NORMAL": 37,
            "POSITION": 36
          },
          "indices": 38,
          "material": 12,
          "mode": 4
        }
      ]
    },
    {
      "name": "Object_13",
      "primitives": [
        {
          "attributes": {
            "NORMAL": 40,
            "POSITION": 39
          },
          "indices": 41,
          "material": 13,
          "mode": 4
        }
      ]
    },
    {
      "name": "Object_14",
      "primitives": [
        {
          "attributes": {
            "NORMAL": 43,
            "POSITION": 42
          },
          "indices": 44,
          "material": 14,
          "mode": 4
        }
      ]
    }
  ],
  "nodes": [
    {
      "children": [
        1
      ],
      "matrix": [
        1.0,
        0.0,
        0.0,
        0.0,
        0.0,
        -1.0,
        -2.220446049250313e-16,
        0.0,
        0.0,
        2.220446049250313e-16,
        -1.0,
        0.0,
        0.0,
        22.693023681640565,
        265.10101318359375,
        1.0
      ],
      "name": "Sketchfab_model"
    },
    {
      "children": [
        2,
        3,
        4,
        5,
        6,
        7,
        8,
        9,
        10,
        11,
        12,
        13,
        14,
        15,
        16
      ],
      "name": "foo.obj.cleaner.gles"
    },
    {
      "mesh": 0,
      "name": "Object_2"
    },
    {
      "mesh": 1,
      "name": "Object_3"
    },
    {
      "mesh": 2,
      "name": "Object_4"
    },
    {
      "mesh": 3,
      "name": "Object_5"
    },
    {
      "mesh": 4,
      "name": "Object_6"
    },
    {
      "mesh": 5,
      "name": "Object_7"
    },
    {
      "mesh": 6,
      "name": "Object_8"
    },
    {
      "mesh": 7,
      "name": "Object_9"
    },
    {
      "mesh": 8,
      "name": "Object_10"
    },
    {
      "mesh": 9,
      "name": "Object_11"
    },
    {
      "mesh": 10,
      "name": "Object_12"
    },
    {
      "mesh": 11,
      "name": "Object_13"
    },
    {
      "mesh": 12,
      "name": "Object_14"
    },
    {
      "mesh": 13,
      "name": "Object_15"
    },
    {
      "mesh": 14,
      "name": "Object_16"
    }
  ],
  "scene": 0,
  "scenes": [
    {
      "name": "Sketchfab_Scene",
      "nodes": [
        0
      ]
    }
  ]
}
